<mxfile host="app.diagrams.net" modified="2023-11-28T14:24:48.032Z" agent="Mozilla/5.0 (X11; Linux x86_64; rv:109.0) Gecko/20100101 Firefox/115.0" version="22.1.4" etag="AIaS0Iw6TFw9HbzJLXOP" type="github">
  <diagram name="Page-1" id="sGopfqJ7_s5N_pJVoMrr">
    <mxGraphModel>
      <root>
        <mxCell id="0" />
        <mxCell id="1" parent="0" />
      </root>
    </mxGraphModel>
  </diagram>
</mxfile>
